<svg width="30" height="33" viewBox="0 0 30 33" fill="none" xmlns="http://www.w3.org/2000/svg">
<path d="M0.5 26.6753L0.499999 7.41495C0.499999 5.96817 1.67284 4.79534 3.11961 4.79534L21.9651 4.79533C23.4119 4.79533 24.5848 5.96817 24.5848 7.41495L24.5848 26.6753C24.5848 28.1221 23.4119 29.2949 21.9651 29.2949L3.11961 29.2949C1.67284 29.2949 0.5 28.1221 0.5 26.6753Z" fill="white" stroke="#1D3557"/>
<path d="M20.5332 25.0188L20.5332 8.86391C20.5332 7.4183 21.7072 6.2443 23.1528 6.2443L26.8804 6.2443C28.3261 6.2443 29.5001 7.4183 29.5001 8.86391L29.5001 25.0188C29.5001 26.4645 28.3261 27.6385 26.8804 27.6385L23.1528 27.6385C21.7072 27.6385 20.5332 26.4645 20.5332 25.0188Z" fill="white" stroke="#1D3557"/>
<path d="M1.49414 29.6753L1.49414 28.2263C1.49414 26.8478 2.81974 25.6067 4.61341 25.6067L17.8313 25.6067C19.625 25.6067 20.9506 26.8478 20.9506 28.2263L20.9506 29.6753C20.9506 31.0538 19.625 32.2949 17.8313 32.2949L4.61341 32.2949C2.81974 32.2949 1.49414 31.0538 1.49414 29.6753Z" fill="white" stroke="#1D3557"/>
<path d="M1.49414 5.16479L1.49414 3.71579C1.49414 2.33732 2.81974 1.09618 4.61341 1.09618L17.8313 1.09618C19.625 1.09618 20.9506 2.33731 20.9506 3.71579L20.9506 5.16479C20.9506 6.54327 19.625 7.78441 17.8313 7.78441L4.61341 7.78441C2.81974 7.78441 1.49414 6.54327 1.49414 5.16479Z" fill="white" stroke="#1D3557"/>
</svg>
