<svg width="30" height="31" viewBox="0 0 30 31" fill="none" xmlns="http://www.w3.org/2000/svg">
<path d="M0.0154001 15.899C-0.356469 7.504 6.05192 0.392825 14.3281 0.0156198C22.6043 -0.361586 29.6127 6.13877 29.9846 14.5316C30.3565 22.9265 23.9481 30.0356 15.674 30.4128C7.39783 30.7921 0.387269 24.2918 0.0154001 15.899ZM2.31845 15.7939C2.58256 21.7778 6.83369 26.6236 12.3547 27.8109C13.9858 25.8435 13.4428 24.8704 12.6737 23.6445C12.3061 23.6038 11.9532 23.5031 11.6363 23.3166C11.6363 23.3166 9.06913 19.0002 9.00785 15.2153C8.96559 12.5448 10.5524 7.37112 11.911 7.01106C11.911 7.01106 12.4793 7.04964 12.6758 7.04749C13.8759 5.2322 13.3836 4.11773 13.1576 3.55192C12.997 3.14899 12.697 2.97325 12.3293 2.82537C6.07305 4.11344 2.02053 9.00639 2.32056 15.7918L2.31845 15.7939ZM14.8732 12.4505C13.6097 12.5105 12.642 13.7493 12.7096 15.2153C12.7772 16.6834 13.8548 17.8236 15.1183 17.7635C16.3797 17.7035 17.3474 16.4648 17.2819 14.9988C17.2143 13.5329 16.1367 12.3905 14.8753 12.4505L14.8732 12.4505ZM19.4307 3.14685C19.1244 3.21972 18.8201 3.3826 18.537 3.68265C17.6073 4.66853 18.013 7.52329 18.3785 9.28929C19.8913 10.6845 21.6493 12.427 23.3501 12.4205C23.6903 12.4205 23.9523 12.6949 24.1425 13.1256C25.1524 13.1578 26.3652 13.0271 26.8301 12.6799C27.1322 12.4548 27.1702 11.9126 27.1343 11.4282C25.9701 7.5833 23.0881 4.53136 19.4307 3.14685ZM26.6864 20.2475C26.6272 20.2475 26.5934 20.2411 26.5934 20.2411C27.4217 17.9993 25.4672 17.6928 24.0939 17.7314C23.9523 18.04 23.7769 18.2672 23.5678 18.3679C23.5678 18.3679 22.0528 18.4751 20.8717 19.0923C20.0266 19.5338 18.9532 20.7555 17.939 21.6578C16.8889 25.687 18.9046 26.5829 19.7941 27.138C22.9043 25.8499 25.3827 23.3552 26.6864 20.2475Z" fill="#1D3557"/>
</svg>
