<svg width="30" height="33" viewBox="0 0 30 33" fill="none" xmlns="http://www.w3.org/2000/svg">
<path d="M0.5 26.2778L0.499999 7.0175C0.499999 5.57073 1.67284 4.39789 3.11961 4.39789L21.9651 4.39789C23.4119 4.39789 24.5848 5.57073 24.5848 7.0175L24.5848 26.2778C24.5848 27.7246 23.4119 28.8975 21.9651 28.8975L3.11961 28.8975C1.67284 28.8975 0.5 27.7246 0.5 26.2778Z" fill="#E63946" stroke="#8C0101"/>
<path d="M20.5332 24.6214L20.5332 8.46646C20.5332 7.02085 21.7072 5.84685 23.1528 5.84685L26.8804 5.84685C28.3261 5.84685 29.5001 7.02085 29.5001 8.46646L29.5001 24.6214C29.5001 26.067 28.3261 27.241 26.8804 27.241L23.1528 27.241C21.7072 27.241 20.5332 26.067 20.5332 24.6214Z" fill="#E63946" stroke="#8C0101"/>
<path d="M1.49414 29.2778L1.49414 27.8288C1.49414 26.4504 2.81974 25.2092 4.61341 25.2092L17.8313 25.2092C19.625 25.2092 20.9506 26.4504 20.9506 27.8288L20.9506 29.2778C20.9506 30.6563 19.625 31.8975 17.8313 31.8975L4.61341 31.8975C2.81974 31.8975 1.49414 30.6563 1.49414 29.2778Z" fill="#E63946" stroke="#8C0101"/>
<path d="M1.49414 4.76734L1.49414 3.31834C1.49414 1.93986 2.81974 0.698727 4.61341 0.698726L17.8313 0.698726C19.625 0.698726 20.9506 1.93986 20.9506 3.31834L20.9506 4.76734C20.9506 6.14582 19.625 7.38695 17.8313 7.38695L4.61341 7.38696C2.81974 7.38696 1.49414 6.14582 1.49414 4.76734Z" fill="#E63946" stroke="#8C0101"/>
</svg>
