<svg width="30" height="33" viewBox="0 0 30 33" fill="none" xmlns="http://www.w3.org/2000/svg">
<g id="Group 14296">
<g id="Group">
<path id="Vector" d="M0.5 26.874L0.499999 7.61368C0.499999 6.1669 1.67284 4.99407 3.11961 4.99407L21.9651 4.99407C23.4119 4.99407 24.5848 6.16691 24.5848 7.61368L24.5848 26.874C24.5848 28.3208 23.4119 29.4936 21.9651 29.4936L3.11961 29.4936C1.67284 29.4936 0.5 28.3208 0.5 26.874Z" fill="#9FFF64" stroke="#00930F"/>
</g>
<g id="Group_2">
<path id="Vector_2" d="M20.5332 25.2176L20.5332 9.06264C20.5332 7.61703 21.7072 6.44303 23.1528 6.44303L26.8804 6.44303C28.3261 6.44303 29.5001 7.61703 29.5001 9.06264L29.5001 25.2176C29.5001 26.6632 28.3261 27.8372 26.8804 27.8372L23.1528 27.8372C21.7072 27.8372 20.5332 26.6632 20.5332 25.2176Z" fill="#9FFF64" stroke="#00930F"/>
</g>
<g id="Group_3">
<g id="Group_4">
<path id="Vector_3" d="M1.49414 29.874L1.49414 28.425C1.49414 27.0465 2.81974 25.8054 4.61341 25.8054L17.8313 25.8054C19.625 25.8054 20.9506 27.0465 20.9506 28.425L20.9506 29.874C20.9506 31.2525 19.625 32.4936 17.8313 32.4936L4.61341 32.4936C2.81974 32.4936 1.49414 31.2525 1.49414 29.874Z" fill="#9FFF64" stroke="#00930F"/>
</g>
</g>
<g id="Group_5">
<path id="Vector_4" d="M1.49414 5.36352L1.49414 3.91452C1.49414 2.53605 2.81974 1.29491 4.61341 1.29491L17.8313 1.29491C19.625 1.29491 20.9506 2.53604 20.9506 3.91452L20.9506 5.36352C20.9506 6.742 19.625 7.98314 17.8313 7.98314L4.61341 7.98314C2.81974 7.98314 1.49414 6.742 1.49414 5.36352Z" fill="#9FFF64" stroke="#00930F"/>
</g>
</g>
</svg>
