<svg width="94" height="16" viewBox="0 0 94 16" fill="none" xmlns="http://www.w3.org/2000/svg">
<g id="Layer_1" clip-path="url(#clip0_357_1053)">
<g id="Group">
<g id="Group_2">
<path id="Vector" d="M20.2861 12.0538C18.1159 12.0538 17.0264 11.1442 17.0264 9.32491V0H18.2186V3.06729H20.2861V4.16149H18.2186V9.12277C18.2186 10.4279 18.9063 11.0783 20.2861 11.0783V12.0494V12.0538Z" fill="#111111"/>
<path id="Vector_2" d="M24.8453 4.27138C24.2916 4.29335 23.8451 4.44276 23.4968 4.7196C23.1529 4.99645 22.9163 5.23814 22.7912 5.44468C22.5948 5.78305 22.4921 6.23567 22.4921 6.80255V12.0582H21.2373V3.26945H22.3492V4.51746C22.5992 4.04287 22.9699 3.67813 23.4611 3.42326C23.9121 3.18596 24.3675 3.08049 24.8408 3.09807V4.27138H24.8453Z" fill="#111111"/>
<path id="Vector_3" d="M33.7089 7.44408V11.8517H32.5166V10.4806C31.5476 11.5704 30.3643 12.0934 28.9577 12.0538C27.7297 12.0143 26.6848 11.5441 25.823 10.652C24.9612 9.75993 24.5281 8.69648 24.5281 7.46166C24.5281 6.22683 24.9925 5.0755 25.9213 4.15707C26.8501 3.23864 27.9619 2.80359 29.2569 2.85633C30.5117 2.89588 31.5744 3.36608 32.4541 4.26693C33.3293 5.16778 33.749 6.22683 33.7089 7.44847V7.44408ZM32.5166 7.36058C32.4943 6.43337 32.1594 5.64238 31.5119 4.98322C30.8644 4.32406 30.083 3.99448 29.172 3.99448C28.2611 3.99448 27.4082 4.32406 26.7384 4.98322C26.0686 5.64238 25.7293 6.44216 25.7203 7.37816C25.698 8.30538 26.0106 9.11834 26.6536 9.81266C27.2966 10.507 28.0736 10.8761 28.9845 10.9157C29.9669 10.9552 30.8064 10.6212 31.503 9.90494C32.1996 9.18865 32.5345 8.34054 32.5166 7.36498V7.36058Z" fill="#111111"/>
<path id="Vector_4" d="M42.1843 3.26953L38.4557 12.0539H37.2188L33.5527 3.26953H34.8075L37.8395 10.5027L40.8581 3.26953H42.1798H42.1843Z" fill="#111111"/>
<path id="Vector_5" d="M51.1105 7.84403H43.0907C43.1845 8.72731 43.564 9.45678 44.2338 10.0324C44.9036 10.6081 45.6895 10.8894 46.6005 10.8806C48.0115 10.8586 49.0162 10.217 49.6235 8.95582H50.8917C50.5568 9.90061 49.9941 10.6521 49.1993 11.2057C48.4045 11.7594 47.5248 12.0451 46.5513 12.0539C45.3278 12.0758 44.2472 11.6364 43.3095 10.7355C42.3718 9.8347 41.8895 8.76686 41.8672 7.52324C41.8359 6.20932 42.3092 5.07556 43.2827 4.12637C44.2606 3.17718 45.4082 2.73774 46.7344 2.80805C47.9267 2.87837 48.9582 3.36175 49.8334 4.25821C50.6773 5.14148 51.1015 6.13022 51.1015 7.21564V7.84843L51.1105 7.84403ZM49.9361 6.76301C49.7709 5.94126 49.3779 5.27771 48.7617 4.76796C48.1455 4.25821 47.4087 3.99894 46.5513 3.99015C45.694 3.98136 44.9438 4.23184 44.3053 4.74598C43.6622 5.26013 43.2604 5.93247 43.0907 6.76301H49.9361Z" fill="#111111"/>
<path id="Vector_6" d="M53.3653 12.0538H52.1731V0H53.3653V12.0538Z" fill="#111111"/>
</g>
<g id="Group_3">
<path id="Vector_7" d="M60.7644 12.0539V6.84218C60.7644 6.1171 60.6394 5.63372 60.3804 5.36566C60.1214 5.0976 59.6927 4.96577 59.0944 4.96577C57.7816 4.96577 57.1162 5.69524 57.1162 7.12781V12.0539H55.022V3.49365H57.0091V5.18109L57.268 4.71529C57.536 4.2363 57.8887 3.87156 58.3263 3.62987C58.7639 3.38379 59.3444 3.26074 60.0455 3.26074C60.4519 3.26074 60.8359 3.32226 61.1842 3.44091C61.528 3.55956 61.8272 3.73973 62.0728 3.97703C62.3184 4.21433 62.5193 4.50875 62.6622 4.85591C62.8051 5.20307 62.881 5.61174 62.881 6.06876V12.0539H60.7689H60.7644Z" fill="#111111"/>
<path id="Vector_8" d="M68.2528 12.0539C65.328 12.0539 63.9036 10.5247 63.9036 7.37829C63.9036 6.71473 63.9973 6.1083 64.1893 5.57219C64.3769 5.04047 64.6537 4.57905 65.0065 4.20114C65.3593 3.82322 65.8013 3.52879 66.3149 3.32665C66.8328 3.12451 67.4357 3.02344 68.1055 3.02344C69.4406 3.02344 70.4632 3.4453 71.1464 4.28463C71.8162 5.10638 72.1645 6.36318 72.1823 8.01108H65.9933L66.0023 8.1517C66.0425 8.85041 66.2523 9.41729 66.6319 9.83036C67.0159 10.2522 67.525 10.4675 68.1501 10.4675C68.5609 10.4675 68.9316 10.3753 69.2486 10.1863C69.5433 10.0149 69.7487 9.77763 69.8559 9.47881H72.0082C71.7313 10.2698 71.2759 10.8938 70.6596 11.3332C69.9943 11.8034 69.1861 12.0451 68.2573 12.0451L68.2528 12.0539ZM68.034 4.60542C67.525 4.60542 67.0784 4.78999 66.7078 5.15472C66.3372 5.51945 66.1273 6.02481 66.0737 6.66639L66.0603 6.81141H70.0166V6.67079C69.9988 6.33242 69.9363 6.02921 69.8291 5.76994C69.7175 5.50627 69.5701 5.28655 69.387 5.11517C69.2039 4.93939 68.9896 4.81196 68.7529 4.72846C68.5207 4.64497 68.2751 4.60542 68.0296 4.60542H68.034Z" fill="#111111"/>
<path id="Vector_9" d="M73.187 16.0001V3.25634H75.192L75.2143 4.66255L75.4599 4.26705C75.9868 3.42772 76.7638 3.01904 77.8399 3.01904C78.3758 3.01904 78.8804 3.12451 79.3403 3.33105C79.8002 3.53758 80.1976 3.8364 80.5236 4.2275C80.8496 4.6186 81.113 5.10638 81.3006 5.67326C81.4881 6.24453 81.5864 6.8993 81.5864 7.62437C81.5864 8.27914 81.506 8.88556 81.3452 9.42607C81.1845 9.96219 80.9523 10.4368 80.6486 10.8279C80.345 11.2146 79.9744 11.5222 79.5368 11.7287C79.1036 11.9397 78.599 12.0451 78.0364 12.0451C76.9647 12.0451 76.1342 11.6101 75.4867 10.718L75.2366 10.3753V15.9913H73.1781L73.187 16.0001ZM77.2996 4.65815C76.6879 4.65815 76.1699 4.90863 75.7591 5.4096C75.3572 5.89737 75.1518 6.54335 75.1518 7.32555C75.1518 9.32061 75.8662 10.3313 77.2773 10.3313C78.6884 10.3313 79.4564 9.36895 79.4564 7.46617C79.4564 6.64881 79.2555 5.97208 78.8625 5.45354C78.4606 4.92182 77.9337 4.65376 77.2952 4.65376L77.2996 4.65815Z" fill="#111111"/>
<path id="Vector_10" d="M85.248 12.0539C84.2567 12.0539 83.5244 11.8386 83.0734 11.4167C82.6179 10.9905 82.3947 10.45 82.3947 9.76444C82.3947 9.15362 82.4929 8.66584 82.6894 8.31429C82.8814 7.96274 83.1538 7.6815 83.4976 7.47936C83.8459 7.27282 84.2701 7.11902 84.7568 7.02234C85.257 6.92127 85.8107 6.82899 86.4001 6.74549C87.0208 6.6576 87.436 6.54335 87.6593 6.38955C87.9049 6.22695 88.0299 5.96329 88.0299 5.60295C88.0299 5.26458 87.8692 5.00092 87.5521 4.81196C87.2574 4.63618 86.8645 4.54829 86.3778 4.54829C85.7928 4.54829 85.3641 4.68452 85.1007 4.94818C84.8685 5.18548 84.7122 5.48869 84.6363 5.85782H82.6894C82.7117 5.47112 82.7831 5.11078 82.9037 4.7812C83.0332 4.42086 83.2475 4.10885 83.5423 3.84958C83.837 3.59031 84.2255 3.38378 84.7032 3.24316C85.1855 3.09814 85.7883 3.02344 86.4849 3.02344C87.1815 3.02344 87.762 3.09814 88.2398 3.25195C88.7087 3.40136 89.0882 3.61668 89.3695 3.89353C89.6509 4.17038 89.8563 4.51753 89.9813 4.93061C90.1108 5.35247 90.1778 5.83585 90.1778 6.37197V12.0539H88.2487C88.1952 11.8606 88.1192 11.4036 88.0969 11.1575L88.0701 10.8411L87.8558 11.0784C87.5923 11.3728 87.2351 11.6101 86.793 11.7859C86.351 11.9616 85.8285 12.0539 85.2391 12.0539H85.248ZM87.8513 7.53648C87.7442 7.64195 87.5879 7.72544 87.378 7.79136C87.1503 7.86167 86.8198 7.94077 86.3912 8.01987C85.6812 8.15609 85.2034 8.33187 84.9265 8.55159C84.6363 8.7801 84.4934 9.11407 84.4934 9.53593C84.4934 10.0501 84.7166 10.6565 85.7794 10.6565C86.1009 10.6565 86.4001 10.6038 86.6769 10.4939C86.9538 10.3884 87.1949 10.239 87.3959 10.0545C87.5968 9.86991 87.7576 9.65458 87.8826 9.4041C88.0076 9.15362 88.0701 8.88117 88.0701 8.59993L88.0925 7.29919L87.8513 7.53648Z" fill="#111111"/>
<path id="Vector_11" d="M93.5 0H91.4058V12.0538H93.5V0Z" fill="#111111"/>
</g>
</g>
<path id="Vector_12" d="M10.3729 0H2.87557C1.56358 0 0.5 1.04668 0.5 2.33782V9.71601C0.5 11.0072 1.56358 12.0538 2.87557 12.0538H10.3729C11.6849 12.0538 12.7485 11.0072 12.7485 9.71601V2.33782C12.7485 1.04668 11.6849 0 10.3729 0Z" fill="#010101"/>
<g id="Group_4">
<path id="Vector_13" d="M10.824 4.65372C10.824 5.36122 10.5561 6.0028 10.114 6.49058L9.88627 6.7147C9.39508 7.14974 8.74314 7.41341 8.03315 7.41341V6.7147C8.60471 6.7147 9.12269 6.48179 9.50225 6.11266C9.8818 5.73914 10.114 5.225 10.114 4.65372C10.114 4.08245 9.8818 3.56831 9.50225 3.19478C9.12269 2.82126 8.60025 2.59275 8.02422 2.59275C6.87215 2.59275 5.93889 3.50679 5.92996 4.64054V6.7147H7.32762V7.41341H5.21997V4.64054C5.21997 3.94183 5.49236 3.30464 5.92996 2.81687L6.1577 2.59275C6.65335 2.15771 7.30529 1.89404 8.02422 1.89404C8.74314 1.89404 9.39508 2.15771 9.89073 2.59275L10.1185 2.81687C10.5605 3.30464 10.8285 3.94623 10.8285 4.65372H10.824Z" fill="#FFCC1A"/>
<path id="Vector_14" d="M8.03305 4.64062V7.41349C8.03305 8.1122 7.76066 8.74939 7.32306 9.23716L7.09532 9.46128C6.59967 9.89632 5.94773 10.16 5.22881 10.16C4.50988 10.16 3.85794 9.89632 3.36229 9.46128L3.13455 9.23716C2.69248 8.74939 2.42456 8.1078 2.42456 7.40031C2.42456 6.69281 2.69248 6.05123 3.13455 5.56345L3.36229 5.33933C3.85347 4.90429 4.50542 4.64062 5.21541 4.64062V5.33933C4.64384 5.33933 4.12586 5.57224 3.74631 5.94137C3.36675 6.31489 3.13455 6.82903 3.13455 7.40031C3.13455 7.97158 3.36675 8.48572 3.74631 8.85925C4.12586 9.23277 4.64831 9.46128 5.22434 9.46128C6.3764 9.46128 7.30966 8.54724 7.31859 7.41349V5.33933H5.92094V4.64062H8.02858H8.03305Z" fill="white"/>
</g>
</g>
<defs>
<clipPath id="clip0_357_1053">
<rect width="93" height="16" fill="white" transform="translate(0.5)"/>
</clipPath>
</defs>
</svg>
